<svg t="1586414083235" class="icon" viewBox="0 0 1024 1024" version="1.1" xmlns="http://www.w3.org/2000/svg" p-id="4848" width="16" height="16">
  <path d="M902.7 346.2l-314.4-256c-51.7-42-127.5-34.3-170 17.9L50.2 560.2c-42 51.7-34.3 127.5 17.4 170l313.9 255.5c52.2 42 127.5 34.3 170-17.4l368.6-452.1c41.9-52.2 34.3-127.5-17.4-170zM458.2 892.5L355.8 809l-93.7-76.3L142.8 637l38.4-47.1 39.9-49.2 314.4 256.5-38.9 48.1-38.4 47.2zM788 487l-76.3 93.7-111.1 137.2-314.9-256.5 111.1-136.2 76.3-93.7 38.4-47.1 118.3 96.3 93.7 76.3 101.9 82.9L788 487zM637.4 918h338.3v85.8H637.4z" p-id="4849"></path>
</svg>